<?xml version="1.0" encoding="UTF-8" standalone="no"?>
<!-- Created with Inkscape (http://www.inkscape.org/) -->

<svg
   width="400"
   height="400"
   viewBox="0 0 105.83333 105.83333"
   version="1.1"
   id="svg5"
   inkscape:version="1.2 (dc2aedaf03, 2022-05-15)"
   sodipodi:docname="pigis_chusqueria.svg"
   xml:space="preserve"
   inkscape:export-filename="pigis_chusqueria2.png"
   inkscape:export-xdpi="96"
   inkscape:export-ydpi="96"
   xmlns:inkscape="http://www.inkscape.org/namespaces/inkscape"
   xmlns:sodipodi="http://sodipodi.sourceforge.net/DTD/sodipodi-0.dtd"
   xmlns:xlink="http://www.w3.org/1999/xlink"
   xmlns="http://www.w3.org/2000/svg"
   xmlns:svg="http://www.w3.org/2000/svg"><sodipodi:namedview
     id="namedview7"
     pagecolor="#ffffff"
     bordercolor="#000000"
     borderopacity="0.25"
     inkscape:showpageshadow="2"
     inkscape:pageopacity="0.0"
     inkscape:pagecheckerboard="0"
     inkscape:deskcolor="#d1d1d1"
     inkscape:document-units="px"
     showgrid="false"
     inkscape:zoom="1.8756036"
     inkscape:cx="191.40505"
     inkscape:cy="203.40119"
     inkscape:window-width="1920"
     inkscape:window-height="1009"
     inkscape:window-x="0"
     inkscape:window-y="0"
     inkscape:window-maximized="1"
     inkscape:current-layer="layer1"
     showguides="true"><sodipodi:guide
       position="53.047647,60.513612"
       orientation="0.99999456,0.0032984547"
       id="guide2682"
       inkscape:locked="false" /><sodipodi:guide
       position="64.574049,52.916665"
       orientation="0.0018643913,-0.99999826"
       id="guide2684"
       inkscape:locked="false" /><inkscape:grid
       type="xygrid"
       id="grid2686" /><sodipodi:guide
       position="93.259904,29.154948"
       orientation="0,-1"
       id="guide4642"
       inkscape:locked="false" /></sodipodi:namedview><defs
     id="defs2"><linearGradient
       inkscape:collect="always"
       id="linearGradient14491"><stop
         style="stop-color:#ffffff;stop-opacity:1;"
         offset="0"
         id="stop14487" /><stop
         style="stop-color:#ffffff;stop-opacity:0;"
         offset="1"
         id="stop14489" /></linearGradient><linearGradient
       inkscape:collect="always"
       id="linearGradient12005"><stop
         style="stop-color:#ffffff;stop-opacity:1;"
         offset="0"
         id="stop12001" /><stop
         style="stop-color:#ffffff;stop-opacity:0;"
         offset="1"
         id="stop12003" /></linearGradient><rect
       x="-106.53691"
       y="72.321916"
       width="523.11231"
       height="149.34798"
       id="rect3655" /><linearGradient
       inkscape:collect="always"
       xlink:href="#linearGradient12005"
       id="linearGradient12007"
       x1="134.5894"
       y1="14.464532"
       x2="135.52274"
       y2="36.619095"
       gradientUnits="userSpaceOnUse"
       gradientTransform="translate(0,-1.0583333)" /><linearGradient
       inkscape:collect="always"
       xlink:href="#linearGradient12005"
       id="linearGradient12118"
       gradientUnits="userSpaceOnUse"
       gradientTransform="translate(0,-1.0583333)"
       x1="134.5894"
       y1="14.464532"
       x2="135.52274"
       y2="36.619095" /><linearGradient
       inkscape:collect="always"
       xlink:href="#linearGradient12005"
       id="linearGradient12134"
       gradientUnits="userSpaceOnUse"
       gradientTransform="translate(0,-1.0583333)"
       x1="134.5894"
       y1="14.464532"
       x2="135.52274"
       y2="36.619095" /><linearGradient
       inkscape:collect="always"
       xlink:href="#linearGradient12005"
       id="linearGradient12150"
       gradientUnits="userSpaceOnUse"
       gradientTransform="translate(0,-1.0583333)"
       x1="134.5894"
       y1="14.464532"
       x2="135.52274"
       y2="36.619095" /><linearGradient
       inkscape:collect="always"
       xlink:href="#linearGradient12005"
       id="linearGradient12166"
       gradientUnits="userSpaceOnUse"
       gradientTransform="translate(0,-1.0583333)"
       x1="134.5894"
       y1="14.464532"
       x2="135.52274"
       y2="36.619095" /><radialGradient
       inkscape:collect="always"
       xlink:href="#linearGradient14491"
       id="radialGradient14493"
       cx="52.72876"
       cy="57.50938"
       fx="52.72876"
       fy="57.50938"
       r="23.046614"
       gradientTransform="matrix(1.0308989,-0.03889361,0.07009894,1.857823,-5.3304298,-45.265046)"
       gradientUnits="userSpaceOnUse" /></defs><g
     inkscape:label="Capa 1"
     inkscape:groupmode="layer"
     id="layer1"><ellipse
       style="fill:#ffffff;stroke:#000000;stroke-width:1.04795;stroke-dasharray:none"
       id="path2740"
       cx="52.971016"
       cy="53.046501"
       rx="52.235268"
       ry="52.451576" /><ellipse
       style="fill:#000000;stroke:#000000;stroke-width:0.694122;stroke-dasharray:none;fill-opacity:1"
       id="ellipse14043"
       cx="53.082436"
       cy="53.279579"
       rx="34.598656"
       ry="34.741932" /><text
       xml:space="preserve"
       transform="scale(0.26458333)"
       id="text3653"
       style="font-style:normal;font-variant:normal;font-weight:normal;font-stretch:normal;font-size:72px;line-height:0px;font-family:KacstDecorative;-inkscape-font-specification:KacstDecorative;white-space:pre;shape-inside:url(#rect3655);display:inline;fill:none;stroke:#000000;stroke-width:4;stroke-dasharray:none" /><g
       aria-label="CHUSQUERIA"
       transform="matrix(1.1470142,0,0,1.1470142,-7.5827779,-7.6199817)"
       id="text3667"
       style="font-size:16.5824px;font-family:'DejaVu Sans Mono';-inkscape-font-specification:'DejaVu Sans Mono';fill:#ff0000;stroke:#000000;stroke-width:0.264583"><path
         d="m 21.317067,43.295408 q 0.181812,0.61086 0.209921,1.250511 0.02811,0.63965 -0.09898,1.316048 -0.451544,2.403204 -2.272845,3.370926 -1.821301,0.967722 -4.813368,0.405535 -3.000026,-0.563682 -4.34586,-2.126485 -1.3458344,-1.562803 -0.8942906,-3.966007 0.1270902,-0.676398 0.3869514,-1.27018 0.2598611,-0.593781 0.6480082,-1.081073 l 2.610101,0.490418 q -0.670667,0.500117 -1.032964,1.025221 -0.368759,0.51565 -0.482393,1.12043 -0.242219,1.289135 0.660215,2.142496 0.895972,0.843908 2.909251,1.222189 2.005322,0.376784 3.154461,-0.08286 1.142676,-0.4691 1.384895,-1.758236 0.113633,-0.604779 -0.03485,-1.217616 -0.154949,-0.62229 -0.598349,-1.331733 z"
         style="font-weight:bold;-inkscape-font-specification:'DejaVu Sans Mono Bold';text-align:center;text-anchor:middle"
         id="path3817" /><path
         d="m 11.78924,35.375659 1.130835,-2.103929 4.058086,2.181172 1.414503,-2.631694 -4.058086,-2.181171 1.130836,-2.103929 10.648018,5.723178 -1.130835,2.103929 -4.735623,-2.545338 -1.414503,2.631693 4.735623,2.545339 -1.130836,2.103929 z"
         style="font-weight:bold;-inkscape-font-specification:'DejaVu Sans Mono Bold';text-align:center;text-anchor:middle"
         id="path3819" /><path
         d="m 24.191562,29.424412 -5.317967,-5.467564 1.712242,-1.665393 5.735726,5.897076 q 0.632285,0.650071 1.324431,0.699752 0.6865,0.04388 1.272725,-0.526308 0.586225,-0.570185 0.561405,-1.257638 -0.03047,-0.693257 -0.662751,-1.343329 l -5.735726,-5.897075 1.712241,-1.665394 5.317967,5.467565 q 1.716202,1.764479 1.792958,3.248554 0.07676,1.484074 -1.478772,2.997041 -1.549724,1.507322 -3.036903,1.39508 -1.481374,-0.117887 -3.197576,-1.882367 z"
         style="font-weight:bold;-inkscape-font-specification:'DejaVu Sans Mono Bold';text-align:center;text-anchor:middle"
         id="path3821" /><path
         d="m 35.223603,19.619782 q -1.922687,0.192733 -2.831731,-0.194331 -0.912668,-0.394305 -1.485277,-1.538308 -0.735695,-1.469826 -0.214823,-2.780862 0.520871,-1.311035 2.16447,-2.133708 0.745774,-0.373284 1.578527,-0.572795 0.829128,-0.206751 1.72713,-0.239722 l 1.043744,2.085271 q -0.930665,-0.140825 -1.76708,-0.03908 -0.836415,0.101745 -1.531506,0.449659 -0.774736,0.38778 -1.031609,0.905697 -0.256873,0.517917 0.03306,1.097159 0.224695,0.448912 0.670145,0.597185 0.449066,0.137409 1.582397,0.01381 l 1.093504,-0.112717 q 1.542486,-0.174466 2.552958,0.306702 1.010473,0.481168 1.612076,1.683095 0.819049,1.636358 0.254719,2.932928 -0.560714,1.285705 -2.515655,2.264215 -0.803698,0.402277 -1.712488,0.612683 -0.897925,0.214023 -1.839394,0.214423 l -1.105354,-2.20836 q 1.158808,0.180559 2.103854,0.07877 0.952287,-0.105415 1.734263,-0.496819 0.789218,-0.395028 1.046068,-0.96726 0.253225,-0.579473 -0.06932,-1.22388 -0.242816,-0.485115 -0.713642,-0.702177 -0.474451,-0.224302 -1.12983,-0.158845 z"
         style="font-weight:bold;-inkscape-font-specification:'DejaVu Sans Mono Bold';text-align:center;text-anchor:middle"
         id="path3823" /><path
         d="m 48.186062,21.088765 q -0.1083,0.04136 -0.187074,0.06176 -0.06953,0.02716 -0.141545,0.03832 -2.056353,0.318658 -3.363558,-1.084704 -1.299204,-1.404601 -1.77285,-4.461126 -0.474886,-3.064527 0.338273,-4.796465 0.82116,-1.7331772 2.893516,-2.0543142 2.080358,-0.3223768 3.379562,1.0822244 1.307205,1.4033618 1.782091,4.4678878 0.326097,2.104362 0.04271,3.606721 -0.284622,1.494358 -1.150554,2.251251 l 1.713919,1.225627 -1.430291,1.450668 z M 46.281401,10.912604 q -0.904156,0.14011 -1.170198,1.172752 -0.267282,1.02464 0.06625,3.17701 0.332296,2.144369 0.898397,3.04806 0.56486,0.895689 1.469016,0.755579 0.912157,-0.14135 1.179439,-1.16599 0.266042,-1.032642 -0.06625,-3.17701 -0.333536,-2.15237 -0.898397,-3.04806 -0.566101,-0.903691 -1.478257,-0.762341 z"
         style="font-weight:bold;-inkscape-font-specification:'DejaVu Sans Mono Bold';text-align:center;text-anchor:middle"
         id="path3825" /><path
         d="m 54.384681,15.911977 1.167997,-7.5372947 2.360405,0.3657739 -1.25975,8.1293968 q -0.13887,0.896154 0.237854,1.478917 0.377964,0.574762 1.186103,0.699993 0.808139,0.125231 1.342331,-0.308181 0.535433,-0.441413 0.674303,-1.337567 l 1.25975,-8.1293969 2.360406,0.3657739 -1.167997,7.537295 q -0.376933,2.432418 -1.516207,3.386578 -1.139274,0.954161 -3.283643,0.621865 -2.136367,-0.331057 -2.941427,-1.586516 -0.797058,-1.254219 -0.420125,-3.686637 z"
         style="font-weight:bold;-inkscape-font-specification:'DejaVu Sans Mono Bold';text-align:center;text-anchor:middle"
         id="path3827" /><path
         d="m 70.745479,25.721371 -6.733687,-3.370424 5.410799,-10.810103 6.733688,3.370425 -0.94227,1.882536 -4.597732,-2.301311 -1.166965,2.331448 4.163302,2.083865 -0.942269,1.882536 -4.163302,-2.083864 -1.417028,2.831045 4.597733,2.301311 z"
         style="font-weight:bold;-inkscape-font-specification:'DejaVu Sans Mono Bold';text-align:center;text-anchor:middle"
         id="path3829" /><path
         d="m 80.448172,26.72404 q 0.204576,0.300636 0.204013,0.672828 0.01089,0.372033 -0.246984,1.182962 l -1.464445,4.641118 -1.880563,-1.82911 1.083559,-3.204359 q 0.04389,-0.13803 0.126509,-0.373938 0.495541,-1.426898 -0.12551,-2.030956 l -0.545595,-0.530668 -3.330787,3.424483 -1.712241,-1.665394 8.428584,-8.665682 2.472592,2.404941 q 1.671612,1.625876 1.821307,2.92358 0.155499,1.30335 -1.142943,2.638318 -0.869392,0.893848 -1.818439,0.998625 -0.949047,0.104778 -1.869057,-0.586748 z m 0.848722,-5.273879 -2.297679,2.362313 0.806785,0.784711 q 0.702309,0.683093 1.269462,0.703856 0.578602,0.0206 1.193951,-0.612054 0.615349,-0.632659 0.578864,-1.199017 -0.03648,-0.566359 -0.744599,-1.255098 z"
         style="font-weight:bold;-inkscape-font-specification:'DejaVu Sans Mono Bold';text-align:center;text-anchor:middle"
         id="path3831" /><path
         d="m 88.442122,29.7824 1.85431,-0.996668 3.40784,6.340314 -1.85431,0.996668 -1.138502,-2.118192 -6.939399,3.72984 1.138502,2.118192 -1.85431,0.996669 -3.40784,-6.340314 1.85431,-0.996669 1.138502,2.118193 6.939399,-3.72984 z"
         style="font-weight:bold;-inkscape-font-specification:'DejaVu Sans Mono Bold';text-align:center;text-anchor:middle"
         id="path3833" /><path
         d="m 94.394376,45.223439 -5.06994,-0.192557 0.417155,2.220178 z m 1.879427,-1.836071 0.539759,2.872704 -11.27818,5.439223 -0.441078,-2.3475 2.798808,-1.283822 -0.590595,-3.143263 -3.07093,-0.164466 -0.441077,-2.3475 z"
         style="font-weight:bold;-inkscape-font-specification:'DejaVu Sans Mono Bold';text-align:center;text-anchor:middle"
         id="path3835" /></g><ellipse
       style="fill:url(#radialGradient14493);stroke:none;stroke-width:0.457772;stroke-dasharray:none;fill-opacity:1"
       id="ellipse14485"
       cx="53.901363"
       cy="52.470612"
       rx="22.817728"
       ry="22.91222" /><g
       id="g14340"
       transform="matrix(1.0951319,0,0,1.0951319,-5.1494549,-10.116795)"><g
         id="g14227"><g
           id="g9791"><path
             id="path7982"
             style="fill:#ff0000;stroke:#000000;stroke-width:0.396875;stroke-linecap:round;stroke-dasharray:none"
             d="m 24.379169,105.93671 c -1e-6,-9.095017 0.09515,-18.255052 5.382264,-25.141331 5.287116,-6.88628 15.23703,-10.440472 23.304897,-10.440472 8.067866,0 18.546949,3.554192 23.834064,10.440472 5.287116,6.886279 5.911431,16.046314 5.911431,25.141331"
             sodipodi:nodetypes="csssc" /><g
             id="g9785"><path
               id="path9779"
               style="fill:#d60000;fill-opacity:1;stroke:none;stroke-width:0.113535;stroke-linecap:round;stroke-dasharray:none"
               d="m 33.869293,105.93671 c 1.690549,-2.24212 0.17663,-20.148506 3.791025,-21.905172 1.334296,4.42914 -5.455585,16.490132 1.794696,21.905172"
               sodipodi:nodetypes="ccc" /><path
               id="path9781"
               style="fill:#d60000;fill-opacity:1;stroke:none;stroke-width:0.113535;stroke-linecap:round;stroke-dasharray:none"
               d="m 72.792533,105.93671 c -1.690549,-2.24212 -0.17663,-20.148506 -3.791025,-21.905172 -1.334296,4.42914 5.455585,16.490132 -1.794696,21.905172"
               sodipodi:nodetypes="ccc" /></g></g><g
           id="g10428"><path
             id="path10387"
             style="fill:#ffffff;stroke:#000000;stroke-width:0.264583;stroke-linecap:round"
             d="m 55.513767,90.129997 c 0,8.882303 -0.1751,16.082833 -2.349376,16.082833 -2.174277,0 -2.878544,-7.200528 -2.878544,-16.082833 0,-4.441153 -0.617683,-3.699362 0.09475,-6.609783 1.364814,-6.518808 4.497503,-4.245954 5.567584,10e-7 0.712434,2.910421 -0.434416,2.16863 -0.434416,6.609782 z"
             sodipodi:nodetypes="sssccs" /><g
             id="g10421"><circle
               style="fill:#000000;fill-opacity:1;stroke:#000000;stroke-width:0.264583;stroke-linecap:round;stroke-dasharray:none;stroke-opacity:1"
               id="path10412"
               cx="52.910408"
               cy="92.223167"
               r="1.3756127" /><circle
               style="fill:#000000;fill-opacity:1;stroke:#000000;stroke-width:0.264583;stroke-linecap:round;stroke-dasharray:none;stroke-opacity:1"
               id="circle10414"
               cx="52.910408"
               cy="97.514839"
               r="1.3756127" /><circle
               style="fill:#000000;fill-opacity:1;stroke:#000000;stroke-width:0.264583;stroke-linecap:round;stroke-dasharray:none;stroke-opacity:1"
               id="circle10416"
               cx="52.910408"
               cy="102.80651"
               r="1.3756127" /></g></g><g
           id="g7764"><g
             id="g7734"><path
               id="path5469"
               style="fill:#ffffff;stroke:#020202;stroke-width:0.264583;stroke-linecap:round"
               d="m 73.820211,77.437722 c 0,1.303669 -6.500048,-0.177071 -7.552084,0.952556 -1.052037,1.129626 3.34394,4.869619 1.462806,5.723953 -1.881133,0.854333 -6.700482,-3.164515 -9.187774,-2.686724 -2.487293,0.477792 -2.642529,5.452224 -5.513042,5.452224 -2.870513,0 -2.659961,-5.623889 -5.147254,-6.101681 -2.487292,-0.477791 -7.672429,4.190514 -9.553562,3.336181 -1.881134,-0.854334 2.196039,-4.57739 1.144002,-5.707016 -1.052036,-1.129626 -7.23328,0.334176 -7.23328,-0.969493 0,-2.607339 3.914511,-3.777217 7.676778,-4.295259 1.881133,-0.259021 1.539494,-1.776689 3.629911,-1.807996 2.090417,-0.03131 6.612892,1.423746 9.483405,1.423746 2.870513,0 7.561963,-1.773322 10.049256,-1.742015 2.487292,0.03131 2.770427,1.867244 4.65156,2.126265 3.762267,0.518042 6.089278,1.68792 6.089278,4.295259 z"
               sodipodi:nodetypes="sssssssssssssss" /><path
               id="path7730"
               style="fill:#ffd4ff;fill-opacity:1;stroke:none;stroke-width:0.194762;stroke-linecap:round"
               d="m 68.672385,76.39762 c 0,0.939592 -4.017894,-0.07222 -4.808831,0.741936 -0.790939,0.814155 1.645081,3.454278 0.230814,4.070023 -1.414266,0.615742 -4.291801,-2.318437 -6.161788,-1.97408 -1.869986,0.34436 -2.732422,3.967258 -4.89052,3.967258 -2.158097,0 -3.020532,-3.622898 -4.890519,-3.967258 -1.869986,-0.344357 -4.747522,2.589822 -6.161788,1.97408 -1.414267,-0.615745 1.021753,-3.637254 0.230815,-4.45141 -0.790937,-0.814155 -4.808831,0.579043 -4.808831,-0.360549 0,-1.879186 2.942991,-2.722352 5.771523,-3.095721 1.414266,-0.186684 1.157418,-1.280512 2.729026,-1.303077 1.571608,-0.02257 4.971677,1.026137 7.129774,1.026137 2.158098,0 5.685205,-1.278087 7.555193,-1.255523 1.869985,0.02257 2.082849,1.345779 3.497115,1.532463 2.828532,0.373369 4.578017,1.216535 4.578017,3.095721 z"
               sodipodi:nodetypes="sssssssssssssss" /></g><g
             id="g7678"
             transform="matrix(0.07894579,0.1089367,-0.1089367,0.07894579,35.959354,75.918215)"
             inkscape:transform-center-y="0.85381104"
             inkscape:transform-center-x="1.3289337"><circle
               style="fill:#cc9d00;fill-opacity:1;stroke:#020202;stroke-width:0.644918;stroke-linecap:round;stroke-dasharray:none;stroke-opacity:1"
               id="circle7670"
               cx="-8.3153372"
               cy="37.711765"
               r="14.644983" /><path
               id="path7672"
               style="fill:#f5bd00;fill-opacity:1;stroke:none;stroke-width:0.541746;stroke-linecap:round"
               d="m -11.297157,33.700926 c -6.794285,0 -7.743107,14.98985 -9.256303,8.366213 -1.469198,-6.431038 0.07771,-15.41864 11.1335333,-16.472268 17.5382108,1.812159 11.0714995,7.712486 -1.8772303,8.106055 z"
               sodipodi:nodetypes="cscc" /><path
               style="fill:#715700;fill-opacity:1;stroke:none;stroke-width:0.264583;stroke-linecap:round;stroke-dasharray:none;stroke-opacity:1"
               d="m -15.475199,49.307449 5.9544241,-14.111801 0.4886041,16.918459 1.2286622,-16.306312 5.5339072,13.603204 -4.8795815,-15.473062 -2.8808541,-0.456126 z"
               id="path7674"
               sodipodi:nodetypes="cccccccc" /><ellipse
               style="fill:#715700;fill-opacity:1;stroke:none;stroke-width:0.264583;stroke-linecap:round;stroke-dasharray:none;stroke-opacity:1"
               id="ellipse7676"
               cx="-8.2417707"
               cy="25.424948"
               rx="4.2281499"
               ry="1.5435776" /></g><g
             id="g7688"
             transform="matrix(-0.07894579,0.1089367,0.1089367,0.07894579,69.875107,75.642956)"
             inkscape:transform-center-y="0.85381104"
             inkscape:transform-center-x="-1.3289335"><circle
               style="fill:#cc9d00;fill-opacity:1;stroke:#020202;stroke-width:0.644918;stroke-linecap:round;stroke-dasharray:none;stroke-opacity:1"
               id="circle7680"
               cx="-8.3153372"
               cy="37.711765"
               r="14.644983" /><path
               id="path7682"
               style="fill:#f5bd00;fill-opacity:1;stroke:none;stroke-width:0.541746;stroke-linecap:round"
               d="m -11.297157,33.700926 c -6.794285,0 -7.743107,14.98985 -9.256303,8.366213 -1.469198,-6.431038 0.07771,-15.41864 11.1335333,-16.472268 17.5382108,1.812159 11.0714995,7.712486 -1.8772303,8.106055 z"
               sodipodi:nodetypes="cscc" /><path
               style="fill:#715700;fill-opacity:1;stroke:none;stroke-width:0.264583;stroke-linecap:round;stroke-dasharray:none;stroke-opacity:1"
               d="m -15.475199,49.307449 5.9544241,-14.111801 0.4886041,16.918459 1.2286622,-16.306312 5.5339072,13.603204 -4.8795815,-15.473062 -2.8808541,-0.456126 z"
               id="path7684"
               sodipodi:nodetypes="cccccccc" /><ellipse
               style="fill:#715700;fill-opacity:1;stroke:none;stroke-width:0.264583;stroke-linecap:round;stroke-dasharray:none;stroke-opacity:1"
               id="ellipse7686"
               cx="-8.2417707"
               cy="25.424948"
               rx="4.2281499"
               ry="1.5435776" /></g><g
             id="g7708"
             transform="matrix(-0.13452768,0.00139517,0.00139517,0.13452768,51.7721,83.025868)"
             inkscape:transform-center-y="1.5760933"
             inkscape:transform-center-x="-0.10482072"><circle
               style="fill:#cc9d00;fill-opacity:1;stroke:#020202;stroke-width:0.644918;stroke-linecap:round;stroke-dasharray:none;stroke-opacity:1"
               id="circle7700"
               cx="-8.3153372"
               cy="37.711765"
               r="14.644983" /><path
               id="path7702"
               style="fill:#f5bd00;fill-opacity:1;stroke:none;stroke-width:0.541746;stroke-linecap:round"
               d="m -11.297157,33.700926 c -6.794285,0 -7.743107,14.98985 -9.256303,8.366213 -1.469198,-6.431038 0.07771,-15.41864 11.1335333,-16.472268 17.5382108,1.812159 11.0714995,7.712486 -1.8772303,8.106055 z"
               sodipodi:nodetypes="cscc" /><path
               style="fill:#715700;fill-opacity:1;stroke:none;stroke-width:0.264583;stroke-linecap:round;stroke-dasharray:none;stroke-opacity:1"
               d="m -15.475199,49.307449 5.9544241,-14.111801 0.4886041,16.918459 1.2286622,-16.306312 5.5339072,13.603204 -4.8795815,-15.473062 -2.8808541,-0.456126 z"
               id="path7704"
               sodipodi:nodetypes="cccccccc" /><ellipse
               style="fill:#715700;fill-opacity:1;stroke:none;stroke-width:0.264583;stroke-linecap:round;stroke-dasharray:none;stroke-opacity:1"
               id="ellipse7706"
               cx="-8.2417707"
               cy="25.424948"
               rx="4.2281499"
               ry="1.5435776" /></g><g
             id="g7718"
             transform="matrix(-0.11149213,0.07529375,0.07529375,0.11149213,64.829332,81.615883)"
             inkscape:transform-center-y="1.2574614"
             inkscape:transform-center-x="-0.95595426"><circle
               style="fill:#cc9d00;fill-opacity:1;stroke:#020202;stroke-width:0.644918;stroke-linecap:round;stroke-dasharray:none;stroke-opacity:1"
               id="circle7710"
               cx="-8.3153372"
               cy="37.711765"
               r="14.644983" /><path
               id="path7712"
               style="fill:#f5bd00;fill-opacity:1;stroke:none;stroke-width:0.541746;stroke-linecap:round"
               d="m -11.297157,33.700926 c -6.794285,0 -7.743107,14.98985 -9.256303,8.366213 -1.469198,-6.431038 0.07771,-15.41864 11.1335333,-16.472268 17.5382108,1.812159 11.0714995,7.712486 -1.8772303,8.106055 z"
               sodipodi:nodetypes="cscc" /><path
               style="fill:#715700;fill-opacity:1;stroke:none;stroke-width:0.264583;stroke-linecap:round;stroke-dasharray:none;stroke-opacity:1"
               d="m -15.475199,49.307449 5.9544241,-14.111801 0.4886041,16.918459 1.2286622,-16.306312 5.5339072,13.603204 -4.8795815,-15.473062 -2.8808541,-0.456126 z"
               id="path7714"
               sodipodi:nodetypes="cccccccc" /><ellipse
               style="fill:#715700;fill-opacity:1;stroke:none;stroke-width:0.264583;stroke-linecap:round;stroke-dasharray:none;stroke-opacity:1"
               id="ellipse7716"
               cx="-8.2417707"
               cy="25.424948"
               rx="4.2281499"
               ry="1.5435776" /></g><g
             id="g7728"
             transform="matrix(0.11149213,0.07529375,-0.07529375,0.11149213,41.501011,81.682245)"
             inkscape:transform-center-y="1.2574614"
             inkscape:transform-center-x="0.9559545"><circle
               style="fill:#cc9d00;fill-opacity:1;stroke:#020202;stroke-width:0.644918;stroke-linecap:round;stroke-dasharray:none;stroke-opacity:1"
               id="circle7720"
               cx="-8.3153372"
               cy="37.711765"
               r="14.644983" /><path
               id="path7722"
               style="fill:#f5bd00;fill-opacity:1;stroke:none;stroke-width:0.541746;stroke-linecap:round"
               d="m -11.297157,33.700926 c -6.794285,0 -7.743107,14.98985 -9.256303,8.366213 -1.469198,-6.431038 0.07771,-15.41864 11.1335333,-16.472268 17.5382108,1.812159 11.0714995,7.712486 -1.8772303,8.106055 z"
               sodipodi:nodetypes="cscc" /><path
               style="fill:#715700;fill-opacity:1;stroke:none;stroke-width:0.264583;stroke-linecap:round;stroke-dasharray:none;stroke-opacity:1"
               d="m -15.475199,49.307449 5.9544241,-14.111801 0.4886041,16.918459 1.2286622,-16.306312 5.5339072,13.603204 -4.8795815,-15.473062 -2.8808541,-0.456126 z"
               id="path7724"
               sodipodi:nodetypes="cccccccc" /><ellipse
               style="fill:#715700;fill-opacity:1;stroke:none;stroke-width:0.264583;stroke-linecap:round;stroke-dasharray:none;stroke-opacity:1"
               id="ellipse7726"
               cx="-8.2417707"
               cy="25.424948"
               rx="4.2281499"
               ry="1.5435776" /></g></g><path
           style="fill:#ff0000;fill-opacity:1;stroke:none;stroke-width:0.264583;stroke-linecap:round;stroke-dasharray:none;stroke-opacity:1"
           d="m 44.477013,74.058731 c 0,0 -0.911502,0.78236 -0.763804,1.230503 0.147698,0.448144 0.987462,0.349404 1.105617,0.835525 0.118158,0.486125 0.02954,1.238102 0.55281,1.150753 0.523269,-0.08735 0.966361,0.341804 1.295514,0.546886 0.329152,0.205083 1.476967,-0.125326 1.83566,0.178501 0.358693,0.303829 2.088859,0.394983 2.413791,0.186097 0.324932,-0.208886 1.270196,-0.383585 1.645767,-0.186097 0.37557,0.19749 2.118394,-0.535498 2.658544,-0.167106 0.540147,0.36839 1.11828,0.129127 1.763924,0.01519 0.645644,-0.113937 1.130935,0.05696 1.958038,0.07975 0.827103,0.02278 1.763919,-0.193688 1.9074,-0.634238 0.143481,-0.44055 0.873522,-1.43179 0.873522,-1.43179 0,0 0.687853,-1.69385 0.291181,-1.709037 -0.396673,-0.01519 -17.537964,-0.09494 -17.537964,-0.09494 z"
           id="path11108"
           sodipodi:nodetypes="cssssssssssscscc" /></g><g
         id="g12132"
         transform="matrix(0.18008487,-0.10339083,0.10339083,0.18008487,45.755723,41.671663)"
         inkscape:transform-center-x="-0.84964893"
         inkscape:transform-center-y="1.7679318"><g
           id="g12128"
           transform="matrix(0.846049,0,0,0.846049,141.1875,2.0606401)"
           inkscape:transform-center-y="8.4103457"
           inkscape:transform-center-x="-1.8349992e-06"><circle
             style="fill:#cc9d00;fill-opacity:1;stroke:#020202;stroke-width:0.644918;stroke-linecap:round;stroke-dasharray:none;stroke-opacity:1"
             id="circle12120"
             cx="-8.3153372"
             cy="37.711765"
             r="14.644983" /><path
             id="path12122"
             style="fill:#f5bd00;fill-opacity:1;stroke:none;stroke-width:0.541746;stroke-linecap:round"
             d="m -11.297157,33.700926 c -6.794285,0 -7.743107,14.98985 -9.256303,8.366213 -1.469198,-6.431038 0.07771,-15.41864 11.1335333,-16.472268 17.5382108,1.812159 11.0714995,7.712486 -1.8772303,8.106055 z"
             sodipodi:nodetypes="cscc" /><path
             style="fill:#715700;fill-opacity:1;stroke:none;stroke-width:0.264583;stroke-linecap:round;stroke-dasharray:none;stroke-opacity:1"
             d="m -15.475199,49.307449 5.9544241,-14.111801 0.4886041,16.918459 1.2286622,-16.306312 5.5339072,13.603204 -4.8795815,-15.473062 -2.8808541,-0.456126 z"
             id="path12124"
             sodipodi:nodetypes="cccccccc" /><ellipse
             style="fill:#715700;fill-opacity:1;stroke:none;stroke-width:0.264583;stroke-linecap:round;stroke-dasharray:none;stroke-opacity:1"
             id="ellipse12126"
             cx="-8.2417707"
             cy="25.424948"
             rx="4.2281499"
             ry="1.5435776" /></g><circle
           style="fill:url(#linearGradient12134);fill-opacity:1;stroke:none;stroke-width:0.264583;stroke-linecap:round;stroke-dasharray:none;stroke-opacity:1"
           id="circle12130"
           cx="134.0258"
           cy="32.773937"
           r="10.539165" /></g><g
         id="g8155"><path
           id="path4773"
           style="fill:#999999;stroke:#000000;stroke-width:0.483199;stroke-dasharray:none"
           d="m 63.834604,66.171342 c 0,6.826931 -0.547397,3.758363 -3.143511,8.232257 -2.596115,4.473893 -3.628714,2.478554 -7.590251,2.478554 -3.961537,0 -4.994138,1.995339 -7.590252,-2.478554 -2.596114,-4.473894 -3.143511,-1.405326 -3.143511,-8.232257 0,-13.653862 2.810689,-24.975865 10.733763,-24.975865 7.923073,0 10.733762,11.322003 10.733762,24.975865 z"
           sodipodi:nodetypes="sssssss" /><path
           id="path8151"
           style="fill:#ababab;fill-opacity:1;stroke:none;stroke-width:0.239124"
           d="m 62.54712,63.274533 c 0,6.831606 -0.446816,6.133673 -2.56591,10.610631 -3.727874,2.608693 -9.891958,2.241703 -13.968834,0 -2.119094,-4.476958 -2.56591,-3.779025 -2.56591,-10.610631 0,-13.663212 3.08307,-22.091789 9.550328,-22.091789 6.467256,0 9.550326,8.428577 9.550326,22.091789 z"
           sodipodi:nodetypes="sccsss" /></g><rect
         style="fill:#ff0000;fill-opacity:1;stroke:#000000;stroke-width:0.294526;stroke-linecap:round;stroke-dasharray:none;stroke-opacity:1"
         id="rect10902"
         width="7.8913112"
         height="15.335859"
         x="49.687263"
         y="25.560352" /><g
         id="g12148"
         transform="matrix(0.19057129,0.08247914,-0.08247914,0.19057129,10.254081,15.261141)"
         inkscape:transform-center-x="0.90862205"
         inkscape:transform-center-y="1.7383595"><g
           id="g12144"
           transform="matrix(0.846049,0,0,0.846049,141.1875,2.0606401)"
           inkscape:transform-center-y="8.4103457"
           inkscape:transform-center-x="-1.8349992e-06"><circle
             style="fill:#cc9d00;fill-opacity:1;stroke:#020202;stroke-width:0.644918;stroke-linecap:round;stroke-dasharray:none;stroke-opacity:1"
             id="circle12136"
             cx="-8.3153372"
             cy="37.711765"
             r="14.644983" /><path
             id="path12138"
             style="fill:#f5bd00;fill-opacity:1;stroke:none;stroke-width:0.541746;stroke-linecap:round"
             d="m -11.297157,33.700926 c -6.794285,0 -7.743107,14.98985 -9.256303,8.366213 -1.469198,-6.431038 0.07771,-15.41864 11.1335333,-16.472268 17.5382108,1.812159 11.0714995,7.712486 -1.8772303,8.106055 z"
             sodipodi:nodetypes="cscc" /><path
             style="fill:#715700;fill-opacity:1;stroke:none;stroke-width:0.264583;stroke-linecap:round;stroke-dasharray:none;stroke-opacity:1"
             d="m -15.475199,49.307449 5.9544241,-14.111801 0.4886041,16.918459 1.2286622,-16.306312 5.5339072,13.603204 -4.8795815,-15.473062 -2.8808541,-0.456126 z"
             id="path12140"
             sodipodi:nodetypes="cccccccc" /><ellipse
             style="fill:#715700;fill-opacity:1;stroke:none;stroke-width:0.264583;stroke-linecap:round;stroke-dasharray:none;stroke-opacity:1"
             id="ellipse12142"
             cx="-8.2417707"
             cy="25.424948"
             rx="4.2281499"
             ry="1.5435776" /></g><circle
           style="fill:url(#linearGradient12150);fill-opacity:1;stroke:none;stroke-width:0.264583;stroke-linecap:round;stroke-dasharray:none;stroke-opacity:1"
           id="circle12146"
           cx="134.0258"
           cy="32.773937"
           r="10.539165" /></g><path
         style="fill:#ffff00;fill-opacity:1;stroke:#000000;stroke-width:0.307882;stroke-linecap:round;stroke-dasharray:none;stroke-opacity:1"
         d="M 49.355719,43.914543 C 46.637591,32.534512 43.357977,29.93906 33.911933,30.746571 c 10.675539,-13.148096 20.830294,3.627953 20.082971,6.415991 0.50028,2.010269 1.880414,5.839491 0.593073,7.703558"
         id="path10690"
         sodipodi:nodetypes="cccc"
         inkscape:transform-center-x="5.7340277"
         inkscape:transform-center-y="-6.1522583" /><g
         id="g5070"
         transform="matrix(0.35744177,0,0,0.35744177,51.023305,43.971854)"><g
           id="g5261"
           transform="translate(0,2.7036516)"><g
             id="g4974"
             transform="rotate(15.092427,5.9131872,152.10754)"><g
               id="g4972"><g
                 id="g4958"><ellipse
                   style="fill:#ffffff;stroke:#000000;stroke-width:0.478993;stroke-dasharray:none"
                   id="ellipse4956"
                   cx="-10.226402"
                   cy="30.274622"
                   rx="15.535978"
                   ry="21.414915" /></g><g
                 id="g4970"
                 transform="translate(1.2573865,-0.31826893)"><circle
                   style="fill:#000000;stroke:#000000;stroke-width:0.478993;stroke-dasharray:none"
                   id="circle4960"
                   cx="-11.414364"
                   cy="30.131784"
                   r="7.4051962" /><g
                   id="g4968"><circle
                     style="fill:#ffffff;stroke:#000000;stroke-width:0.103057;stroke-dasharray:none"
                     id="circle4962"
                     cx="-15.009893"
                     cy="26.103718"
                     r="1.5932593" /><circle
                     style="fill:#ffffff;stroke:#000000;stroke-width:0.0624342;stroke-dasharray:none"
                     id="circle4964"
                     cx="-17.50502"
                     cy="28.299871"
                     r="0.965231" /><ellipse
                     style="fill:#ffffff;stroke:#000000;stroke-width:0.0801888;stroke-dasharray:none"
                     id="ellipse4966"
                     cx="-15.548162"
                     cy="29.854572"
                     rx="0.95635372"
                     ry="1.6070378" /></g></g></g></g><g
             id="g5239"
             transform="matrix(-0.96550705,0.2603769,0.2603769,0.96550705,-28.273111,3.7069798)"><g
               id="g5237"><g
                 id="g5223"><ellipse
                   style="fill:#ffffff;stroke:#000000;stroke-width:0.478993;stroke-dasharray:none"
                   id="ellipse5221"
                   cx="-10.226402"
                   cy="30.274622"
                   rx="15.535978"
                   ry="21.414915" /></g><g
                 id="g5235"
                 transform="matrix(-0.86440774,0.50279147,0.50279147,0.86440774,-35.173646,9.5064126)"><circle
                   style="fill:#000000;stroke:#000000;stroke-width:0.478993;stroke-dasharray:none"
                   id="circle5225"
                   cx="-11.414364"
                   cy="30.131784"
                   r="7.4051962" /><g
                   id="g5233"><circle
                     style="fill:#ffffff;stroke:#000000;stroke-width:0.103057;stroke-dasharray:none"
                     id="circle5227"
                     cx="-15.009893"
                     cy="26.103718"
                     r="1.5932593" /><circle
                     style="fill:#ffffff;stroke:#000000;stroke-width:0.0624342;stroke-dasharray:none"
                     id="circle5229"
                     cx="-17.50502"
                     cy="28.299871"
                     r="0.965231" /><ellipse
                     style="fill:#ffffff;stroke:#000000;stroke-width:0.0801888;stroke-dasharray:none"
                     id="ellipse5231"
                     cx="-15.548162"
                     cy="29.854572"
                     rx="0.95635372"
                     ry="1.6070378" /></g></g></g></g></g><path
           style="fill:#ff0000;stroke:#020202;stroke-width:0.645711;stroke-linecap:round;stroke-dasharray:none;stroke-opacity:1"
           d="m -1.0137258,62.569581 c 4.7689155,1.449976 14.4647568,-0.359593 22.4242788,-1.020451 0,0 -32.393532,14.851547 -22.4242788,1.020451 z"
           id="path5319"
           sodipodi:nodetypes="ccc" /></g><path
         style="fill:#ff00ff;fill-opacity:1;stroke:#000000;stroke-width:0.307882;stroke-linecap:round;stroke-dasharray:none;stroke-opacity:1"
         d="M 58.382524,43.577845 C 59.290672,34.580089 59.488979,30.809511 71.995033,32.007897 59.594885,21.938433 53.1697,34.427846 53.69536,36.859082 c -0.485947,2.013782 -1.83877,5.852739 -0.538183,7.707587"
         id="path10692"
         sodipodi:nodetypes="cccc"
         inkscape:transform-center-x="-6.890986"
         inkscape:transform-center-y="-6.4426886" /><g
         id="g12116"
         transform="matrix(0.2076541,0,0,0.2076541,43.807027,42.429203)"
         inkscape:transform-center-x="0.14340623"
         inkscape:transform-center-y="1.9562524"><g
           id="g12112"
           transform="matrix(0.846049,0,0,0.846049,141.1875,2.0606401)"
           inkscape:transform-center-y="8.4103457"
           inkscape:transform-center-x="-1.8349992e-06"><circle
             style="fill:#cc9d00;fill-opacity:1;stroke:#020202;stroke-width:0.644918;stroke-linecap:round;stroke-dasharray:none;stroke-opacity:1"
             id="circle12104"
             cx="-8.3153372"
             cy="37.711765"
             r="14.644983" /><path
             id="path12106"
             style="fill:#f5bd00;fill-opacity:1;stroke:none;stroke-width:0.541746;stroke-linecap:round"
             d="m -11.297157,33.700926 c -6.794285,0 -7.743107,14.98985 -9.256303,8.366213 -1.469198,-6.431038 0.07771,-15.41864 11.1335333,-16.472268 17.5382108,1.812159 11.0714995,7.712486 -1.8772303,8.106055 z"
             sodipodi:nodetypes="cscc" /><path
             style="fill:#715700;fill-opacity:1;stroke:none;stroke-width:0.264583;stroke-linecap:round;stroke-dasharray:none;stroke-opacity:1"
             d="m -15.475199,49.307449 5.9544241,-14.111801 0.4886041,16.918459 1.2286622,-16.306312 5.5339072,13.603204 -4.8795815,-15.473062 -2.8808541,-0.456126 z"
             id="path12108"
             sodipodi:nodetypes="cccccccc" /><ellipse
             style="fill:#715700;fill-opacity:1;stroke:none;stroke-width:0.264583;stroke-linecap:round;stroke-dasharray:none;stroke-opacity:1"
             id="ellipse12110"
             cx="-8.2417707"
             cy="25.424948"
             rx="4.2281499"
             ry="1.5435776" /></g><circle
           style="fill:url(#linearGradient12118);fill-opacity:1;stroke:none;stroke-width:0.264583;stroke-linecap:round;stroke-dasharray:none;stroke-opacity:1"
           id="circle12114"
           cx="134.0258"
           cy="32.773937"
           r="10.539165" /></g><path
         style="fill:#008000;fill-opacity:1;stroke:#000000;stroke-width:0.307882;stroke-linecap:round;stroke-dasharray:none;stroke-opacity:1"
         d="m 61.833605,44.12625 c 3.367212,-7.910196 8.296636,-1.049909 9.914716,3.870552 0.04929,-15.508158 -6.392927,-19.606048 -13.32419,-11.319497 -0.838395,1.894349 -2.856223,5.429329 -1.908475,7.48694"
         id="path10676"
         sodipodi:nodetypes="cccc" /><g
         id="g12102"
         transform="matrix(0.2076541,0,0,0.2076541,5.2487314,42.061711)"
         inkscape:transform-center-x="0.14340623"
         inkscape:transform-center-y="1.9562524"><g
           id="g7668"
           transform="matrix(0.846049,0,0,0.846049,141.1875,2.0606401)"
           inkscape:transform-center-y="8.4103457"
           inkscape:transform-center-x="-1.8349992e-06"><circle
             style="fill:#cc9d00;fill-opacity:1;stroke:#020202;stroke-width:0.644918;stroke-linecap:round;stroke-dasharray:none;stroke-opacity:1"
             id="path5573"
             cx="-8.3153372"
             cy="37.711765"
             r="14.644983" /><path
             id="circle7551"
             style="fill:#f5bd00;fill-opacity:1;stroke:none;stroke-width:0.541746;stroke-linecap:round"
             d="m -11.297157,33.700926 c -6.794285,0 -7.743107,14.98985 -9.256303,8.366213 -1.469198,-6.431038 0.07771,-15.41864 11.1335333,-16.472268 17.5382108,1.812159 11.0714995,7.712486 -1.8772303,8.106055 z"
             sodipodi:nodetypes="cscc" /><path
             style="fill:#715700;fill-opacity:1;stroke:none;stroke-width:0.264583;stroke-linecap:round;stroke-dasharray:none;stroke-opacity:1"
             d="m -15.475199,49.307449 5.9544241,-14.111801 0.4886041,16.918459 1.2286622,-16.306312 5.5339072,13.603204 -4.8795815,-15.473062 -2.8808541,-0.456126 z"
             id="path7608"
             sodipodi:nodetypes="cccccccc" /><ellipse
             style="fill:#715700;fill-opacity:1;stroke:none;stroke-width:0.264583;stroke-linecap:round;stroke-dasharray:none;stroke-opacity:1"
             id="path7662"
             cx="-8.2417707"
             cy="25.424948"
             rx="4.2281499"
             ry="1.5435776" /></g><circle
           style="fill:url(#linearGradient12007);fill-opacity:1;stroke:none;stroke-width:0.264583;stroke-linecap:round;stroke-dasharray:none;stroke-opacity:1"
           id="path11939"
           cx="134.0258"
           cy="32.773937"
           r="10.539165" /></g><path
         style="fill:#0000ff;fill-opacity:1;stroke:#000000;stroke-width:0.307882;stroke-linecap:round;stroke-dasharray:none;stroke-opacity:1"
         d="m 45.574804,44.177911 c -3.367212,-7.910196 -10.675558,-1.939601 -12.293638,2.98086 -0.04929,-15.508158 8.771849,-18.716356 15.703112,-10.429805 0.838395,1.894349 2.856223,5.429329 1.908475,7.48694"
         id="path10688"
         sodipodi:nodetypes="cccc" /><path
         style="fill:#ffffff;fill-opacity:1;stroke:#000000;stroke-width:0.264583;stroke-linecap:round;stroke-dasharray:none;stroke-opacity:1"
         d="m 44.262117,46.616509 c 6.066441,-1.713272 11.940828,-1.314626 17.747995,-0.176813 0.937277,-0.856978 0.59214,-2.050016 0.388315,-3.416096 0,0 -0.857509,-1.5313 -1.895201,-1.512353 -1.068423,0.01951 -1.457976,1.641133 -2.42437,1.662646 -0.940948,0.02095 -1.386674,-1.531299 -2.424368,-1.512353 -1.068423,0.01951 -1.457976,1.641134 -2.42437,1.662646 -0.940948,0.02095 -1.386674,-1.531299 -2.424368,-1.512353 -1.068422,0.01951 -1.457975,1.641134 -2.424368,1.662647 -0.94095,0.02095 -1.386676,-1.5313 -2.42437,-1.512354 -1.068421,0.01951 -1.895201,1.13348 -1.895201,1.13348 -0.19395,1.156552 -0.772674,2.789647 0.200306,3.520903 z"
         id="path10025"
         sodipodi:nodetypes="cccsasasascc" /><path
         style="fill:none;stroke:#ff0000;stroke-width:1.12635;stroke-linecap:round;stroke-dasharray:none;stroke-opacity:1"
         d="m 50.39107,37.889897 c -0.05497,19.685448 10.360559,4.18249 18.842097,-7.44543"
         id="path5172"
         sodipodi:nodetypes="cc"
         inkscape:transform-center-x="-5.7259158"
         inkscape:transform-center-y="-7.7443768" /><g
         id="g12164"
         transform="matrix(0.20613884,0.02503998,-0.02503998,0.20613884,27.793565,32.719133)"
         inkscape:transform-center-x="0.37825579"
         inkscape:transform-center-y="1.9246835"><g
           id="g12160"
           transform="matrix(0.846049,0,0,0.846049,141.1875,2.0606401)"
           inkscape:transform-center-y="8.4103457"
           inkscape:transform-center-x="-1.8349992e-06"><circle
             style="fill:#cc9d00;fill-opacity:1;stroke:#020202;stroke-width:0.644918;stroke-linecap:round;stroke-dasharray:none;stroke-opacity:1"
             id="circle12152"
             cx="-8.3153372"
             cy="37.711765"
             r="14.644983" /><path
             id="path12154"
             style="fill:#f5bd00;fill-opacity:1;stroke:none;stroke-width:0.541746;stroke-linecap:round"
             d="m -11.297157,33.700926 c -6.794285,0 -7.743107,14.98985 -9.256303,8.366213 -1.469198,-6.431038 0.07771,-15.41864 11.1335333,-16.472268 17.5382108,1.812159 11.0714995,7.712486 -1.8772303,8.106055 z"
             sodipodi:nodetypes="cscc" /><path
             style="fill:#715700;fill-opacity:1;stroke:none;stroke-width:0.264583;stroke-linecap:round;stroke-dasharray:none;stroke-opacity:1"
             d="m -15.475199,49.307449 5.9544241,-14.111801 0.4886041,16.918459 1.2286622,-16.306312 5.5339072,13.603204 -4.8795815,-15.473062 -2.8808541,-0.456126 z"
             id="path12156"
             sodipodi:nodetypes="cccccccc" /><ellipse
             style="fill:#715700;fill-opacity:1;stroke:none;stroke-width:0.264583;stroke-linecap:round;stroke-dasharray:none;stroke-opacity:1"
             id="ellipse12158"
             cx="-8.2417707"
             cy="25.424948"
             rx="4.2281499"
             ry="1.5435776" /></g><circle
           style="fill:url(#linearGradient12166);fill-opacity:1;stroke:none;stroke-width:0.264583;stroke-linecap:round;stroke-dasharray:none;stroke-opacity:1"
           id="circle12162"
           cx="134.0258"
           cy="32.773937"
           r="10.539165" /></g><path
         style="fill:#ff0000;fill-opacity:1;stroke:#000000;stroke-width:0.290257;stroke-linecap:round;stroke-dasharray:none;stroke-opacity:1"
         d="m 49.371872,26.221761 c 2.55706,-2.581193 5.631114,-1.440508 8.643555,-0.743375 -3.376533,3.385421 -1.980894,12.181504 -3.063973,16.108844 -1.54573,-3.696951 -1.347716,-13.172974 -5.579582,-15.365469 z"
         id="path10848"
         sodipodi:nodetypes="cccc" /></g></g></svg>
